<svg xmlns="http://www.w3.org/2000/svg" xmlns:xlink="http://www.w3.org/1999/xlink" width="125" height="120" viewBox="0 0 125 120"><g id="a"><path d="M0 0h81v24H0z"/><g fill="#fff"><path d="M32.135 5.66h-17.69c-.158 0-.236.09-.236.23v11.736c0 .142.077.23.234.23h17.69c5.197 0 7.82-1.7 7.82-6.138 0-4.406-2.623-6.06-7.82-6.06zm-4.58 9.956H22.01c-.158 0-.188-.062-.188-.187V8.085c0-.124.03-.186.188-.186h5.542c3.296 0 4.615.928 4.615 3.85-.002 2.925-1.32 3.866-4.616 3.866zM67.863 17.364l-5.117-3.558c-.125-.092-.205-.14-.205-.2 0-.062.05-.095.16-.095 2.59 0 4.598-1.187 4.598-3.817 0-2.613-1.728-4.036-4.913-4.036H42.998c-.157 0-.234.092-.234.23v11.737c0 .14.077.232.234.232h7.134c.157 0 .236-.092.236-.232V14.84c0-.138.046-.183.188-.183h4.104c.204 0 .282.016.423.123l3.564 2.906c.174.14.297.17.502.17h8.868c.127 0 .188-.045.188-.14.003-.118-.218-.26-.343-.352zm-11.11-4.886h-6.187c-.144 0-.19-.047-.19-.186V8.086c0-.14.048-.186.19-.186h6.186c2.07 0 2.95.558 2.95 2.244 0 1.7-.88 2.334-2.95 2.334z"/></g><g transform="translate(81)"><path fill="#D6D8D6" d="M0 0h36v24H0z"/><g><path d="M30.986 18.37S27.388 12.54 27.36 12.5c-.026-.04-.015-.067.005-.09l3.414-4.33c.056-.113.036-.19-.132-.19h-4.145c-.11 0-.205.113-.262.19 0 0-2.85 3.627-2.94 3.745-.06.08-.078.062-.078-.025V5.082c0-.13-.094-.188-.244-.188h-3.3c-.15 0-.245.094-.245.225v13.25c0 .133.096.19.244.19h3.28c.15 0 .265-.038.265-.19v-2.29l1.045-1.255c.023-.03.084-.053.113-.003l1.992 3.55c.094.15.168.187.412.187h4.088c.114 0 .228-.038.114-.19zM9.5 13.214c0-1.312.958-2.382 2.27-2.382s2.29 1.07 2.29 2.382-.977 2.363-2.29 2.363-2.27-1.05-2.27-2.363zm-3.71 0c0 3.057 2.212 5.55 5.27 5.55 1.746 0 2.712-.876 2.956-1.143.058-.06.065-.042.062 0v.75c0 .132.094.188.243.188h2.796c.15 0 .243-.074.243-.225V5.08c0-.13-.094-.187-.244-.187h-3.3c-.15 0-.244.094-.244.225v3.297c0 .05-.013.043-.064.01-.244-.156-1.113-.762-2.448-.762-3.06 0-5.27 2.494-5.27 5.55z"/></g></g></g><use xlink:href="#a"/><use xlink:href="#a" transform="translate(0 50) scale(.667)"/><g transform="translate(95 94)" fill="#CCC"><path d="M0 0h20v3H0zM0 7h20v3H0zM0 14h20v3H0z"/></g></svg>